<?xml version="1.0" encoding="UTF-8" standalone="no"?>
<!-- Created with Inkscape (http://www.inkscape.org/) -->

<svg
   width="37"
   height="35"
   viewBox="0 0 9.7895831 9.2604166"
   version="1.1"
   id="svg1"
   xmlns="http://www.w3.org/2000/svg"
   xmlns:svg="http://www.w3.org/2000/svg">
  <defs
     id="defs1" />
  <g
     id="layer1">
    <path
       style="baseline-shift:baseline;display:inline;overflow:visible;vector-effect:none;stroke-width:0.213308;stroke-linecap:round;stroke-linejoin:round;paint-order:markers stroke fill;enable-background:accumulate;stop-color:#000000"
       d="M 3.8837161,0 C 1.7412402,0 0,1.7412434 0,3.8837113 0,6.017061 1.7271315,7.7501859 3.8570549,7.7649314 V 8.736482 a 0.52408621,0.52408621 0 0 0 0.7911539,0.450782 c 0,0 2.1166936,-1.2539082 3.0983943,-1.9172785 C 8.9284606,6.6049382 9.7226218,5.3346641 9.7226218,3.8837113 9.7226218,1.7412434 7.9813783,0 5.8389105,0 Z m 0,1.0482046 h 1.9551944 c 1.5799699,0 2.8355065,1.2555367 2.8355065,2.8355067 0,1.0700045 -0.5803149,1.9882084 -1.4419233,2.4730526 a 0.52408621,0.52408621 0 0 0 -0.037892,0.0233 C 6.5382779,6.8266045 5.5720402,7.3965517 4.9052837,7.7961558 V 7.2433001 A 0.52408621,0.52408621 0 0 0 4.3811773,6.7191937 H 3.8837322 c -1.5799699,0 -2.8354985,-1.2555285 -2.8354985,-2.8355066 0,-1.57997 1.2555286,-2.8355066 2.8354985,-2.8355066 z"
       id="path7" />
  </g>
</svg>
