<?xml version="1.0" encoding="UTF-8" standalone="no"?>
<!-- Created with Inkscape (http://www.inkscape.org/) -->

<svg
   width="31.999998"
   height="31.999998"
   viewBox="0 0 8.466666 8.4666661"
   version="1.1"
   id="svg1"
   sodipodi:docname="favicon.svg"
   inkscape:version="1.4.3 (0d15f75042, 2025-12-25)"
   xmlns:inkscape="http://www.inkscape.org/namespaces/inkscape"
   xmlns:sodipodi="http://sodipodi.sourceforge.net/DTD/sodipodi-0.dtd"
   xmlns:xlink="http://www.w3.org/1999/xlink"
   xmlns="http://www.w3.org/2000/svg"
   xmlns:svg="http://www.w3.org/2000/svg">
  <sodipodi:namedview
     id="namedview1"
     pagecolor="#ffffff"
     bordercolor="#000000"
     borderopacity="0.25"
     inkscape:showpageshadow="2"
     inkscape:pageopacity="0.0"
     inkscape:pagecheckerboard="0"
     inkscape:deskcolor="#d1d1d1"
     inkscape:zoom="36.250002"
     inkscape:cx="15.999999"
     inkscape:cy="15.999999"
     inkscape:window-width="2560"
     inkscape:window-height="1371"
     inkscape:window-x="0"
     inkscape:window-y="0"
     inkscape:window-maximized="1"
     inkscape:current-layer="svg1" />
  <defs
     id="defs1">
    <linearGradient
       id="linearGradient1"
       inkscape:collect="always">
      <stop
         style="stop-color:#ddf8c5;stop-opacity:1;"
         offset="0"
         id="stop1" />
      <stop
         style="stop-color:#90f6e1;stop-opacity:1;"
         offset="1"
         id="stop2" />
    </linearGradient>
    <linearGradient
       inkscape:collect="always"
       xlink:href="#linearGradient1"
       id="linearGradient2"
       x1="4.2333331"
       y1="0"
       x2="4.2333331"
       y2="8.4666662"
       gradientUnits="userSpaceOnUse" />
  </defs>
  <g
     id="layer1">
    <circle
       style="fill:url(#linearGradient2);fill-opacity:1;stroke:none;stroke-width:0.20513"
       id="path1"
       cx="4.2333331"
       cy="4.2333331"
       r="4.2333331" />
    <path
       style="font-weight:800;font-size:6.4851px;font-family:'LINE Seed JP';-inkscape-font-specification:'LINE Seed JP, Ultra-Bold';baseline-shift:baseline;display:inline;overflow:visible;opacity:1;vector-effect:none;enable-background:accumulate;stop-color:#000000;stop-opacity:1"
       d="m 4.7519531,2.2480469 c -0.254719,0 -0.4871459,0.044449 -0.6992187,0.1328125 C 3.86335,2.4597695 3.7115338,2.5888054 3.578125,2.7382813 L 3.568355,2.4648438 c 0,-0.04317 -0.013923,-0.081434 -0.042969,-0.1074219 C 3.49634,2.3314339 3.456364,2.3203129 3.4101517,2.3203129 H 2.5078125 c -0.044336,0 -0.083534,0.010859 -0.1113281,0.037109 -0.027795,0.02625 -0.039063,0.06459 -0.039063,0.1074219 v 3.5937499 c 0,0.044655 0.011483,0.083749 0.039063,0.1113282 0.02758,0.027579 0.066673,0.039063 0.1113281,0.039063 h 1.0644531 c 0.044655,0 0.083749,-0.011483 0.1113282,-0.039063 0.027579,-0.027579 0.039062,-0.066673 0.039063,-0.1113282 v -1.796875 c 0,-0.2760717 0.060389,-0.477777 0.1738281,-0.6074218 C 4.011908,3.518262 4.1529894,3.453125 4.3300781,3.453125 c 0.1831793,0 0.3094001,0.053139 0.3886719,0.1601563 0.078957,0.1065917 0.1230469,0.292296 0.1230469,0.5566406 v 1.8886718 c 0,0.044655 0.011483,0.083749 0.039063,0.1113282 0.027579,0.027579 0.066673,0.039063 0.1113281,0.039063 h 1.0644531 c 0.044655,0 0.083749,-0.011483 0.1113281,-0.039063 0.02758,-0.027579 0.039063,-0.066673 0.039063,-0.1113282 V 3.6835938 C 6.2070313,3.2404463 6.0817566,2.8883972 5.828125,2.6347656 5.5742748,2.376462 5.2122566,2.2480469 4.7519531,2.2480469 Z"
       id="path3" />
  </g>
</svg>
