<?xml version="1.0" encoding="UTF-8" standalone="no"?>
<!-- Created with Inkscape (http://www.inkscape.org/) -->

<svg
   width="10.31875mm"
   height="10.31875mm"
   viewBox="0 0 10.31875 10.31875"
   version="1.1"
   id="svg1"
   xmlns="http://www.w3.org/2000/svg"
   xmlns:svg="http://www.w3.org/2000/svg">
  <defs
     id="defs1" />
  <g
     id="layer1"
     transform="translate(-113.50625,-135.20208)">
    <path
       id="path2"
       style="baseline-shift:baseline;display:inline;overflow:visible;vector-effect:none;stroke-width:0.264761;stroke-linecap:round;stroke-linejoin:round;enable-background:accumulate;stop-color:#000000"
       d="m 114.63293,135.20208 c -0.61713,0 -1.12668,0.51153 -1.12668,1.13104 v 5.67905 c 0,0.61951 0.50956,1.13052 1.12668,1.13052 h 0.3107 a 0.39637872,0.39791121 0 0 0 0.39638,-0.39791 0.39637872,0.39791121 0 0 0 -0.39638,-0.39791 h -0.3107 c -0.19165,0 -0.33393,-0.14231 -0.33393,-0.3347 v -5.67905 c 0,-0.19239 0.14228,-0.33522 0.33393,-0.33522 h 5.65717 c 0.19165,0 0.33341,0.14283 0.33341,0.33522 v 0.31191 a 0.39637872,0.39791121 0 0 0 0.39638,0.39791 0.39637872,0.39791121 0 0 0 0.39638,-0.39791 v -0.31191 c 0,-0.61951 -0.50904,-1.13104 -1.12617,-1.13104 z m 2.40873,2.37814 c -0.61713,0 -1.12669,0.51153 -1.12669,1.13105 v 1.41963 a 0.39637872,0.39791121 0 0 0 0.39638,0.39791 0.39637872,0.39791121 0 0 0 0.39637,-0.39791 v -1.41963 c 0,-0.1924 0.14228,-0.33522 0.33394,-0.33522 h 1.41416 a 0.39637872,0.39791121 0 0 0 0.39638,-0.39792 0.39637872,0.39791121 0 0 0 -0.39638,-0.39791 z m 4.24248,0 a 0.39637872,0.39791121 0 0 0 -0.39637,0.39791 0.39637872,0.39791121 0 0 0 0.39637,0.39792 h 1.41417 c 0.19165,0 0.33393,0.14282 0.33393,0.33522 v 1.41963 a 0.39637872,0.39791121 0 0 0 0.39638,0.39791 0.39637872,0.39791121 0 0 0 0.39638,-0.39791 v -1.41963 c 0,-0.61952 -0.50956,-1.13105 -1.12669,-1.13105 z m -1.40435,1.9906 a 0.39637872,0.39791121 0 0 0 -0.39638,0.39791 v 1.1041 h -1.17933 a 0.39637872,0.39791121 0 0 0 -0.39638,0.39791 0.39637872,0.39791121 0 0 0 0.39638,0.39791 h 1.17933 v 1.2243 a 0.39637872,0.39791121 0 0 0 0.39638,0.39791 0.39637872,0.39791121 0 0 0 0.39638,-0.39791 v -1.2243 h 1.1401 a 0.39637872,0.39791121 0 0 0 0.39638,-0.39791 0.39637872,0.39791121 0 0 0 -0.39638,-0.39791 h -1.1401 v -1.1041 a 0.39637872,0.39791121 0 0 0 -0.39638,-0.39791 z m -3.56844,3.00143 a 0.39637872,0.39791121 0 0 0 -0.39638,0.39791 v 1.42015 c 0,0.61951 0.50956,1.13052 1.12669,1.13052 h 1.41416 a 0.39637872,0.39791121 0 0 0 0.39638,-0.39791 0.39637872,0.39791121 0 0 0 -0.39638,-0.39791 h -1.41416 c -0.19166,0 -0.33394,-0.1423 -0.33394,-0.3347 v -1.42015 a 0.39637872,0.39791121 0 0 0 -0.39637,-0.39791 z m 7.11727,0 a 0.39637872,0.39791121 0 0 0 -0.39638,0.39791 v 1.42015 c 0,0.1924 -0.14228,0.3347 -0.33393,0.3347 h -1.41417 a 0.39637872,0.39791121 0 0 0 -0.39637,0.39791 0.39637872,0.39791121 0 0 0 0.39637,0.39791 h 1.41417 c 0.61713,0 1.12669,-0.51101 1.12669,-1.13052 v -1.42015 a 0.39637872,0.39791121 0 0 0 -0.39638,-0.39791 z" />
  </g>
</svg>
