<?xml version="1.0" encoding="UTF-8" standalone="no"?>
<!-- Created with Inkscape (http://www.inkscape.org/) -->

<svg
   width="58.010773mm"
   height="11.613441mm"
   viewBox="0 0 58.010773 11.613441"
   version="1.1"
   id="svg1"
   xml:space="preserve"
   xmlns="http://www.w3.org/2000/svg"
   xmlns:svg="http://www.w3.org/2000/svg"><defs
     id="defs1" /><g
     id="g2"
     transform="translate(-36.103846,-17.739758)"><path
       style="font-weight:bold;font-size:14.1111px;font-family:'LINE Seed JP';-inkscape-font-specification:'LINE Seed JP, Bold';stroke-width:0.264583"
       d="m 36.301404,29.19797 q -0.197555,0 -0.197555,-0.197555 v -7.521217 q 0,-0.197555 0.197555,-0.197555 h 1.439333 q 0.211666,0 0.211666,0.197555 l 0.04233,0.903111 q 0.437444,-0.635 1.128888,-0.945444 0.691444,-0.310444 1.453444,-0.310444 1.382888,0 2.130776,0.77611 0.761999,0.776111 0.761999,2.144888 v 4.952996 q 0,0.197555 -0.197555,0.197555 h -1.594554 q -0.197556,0 -0.197556,-0.197555 v -4.148664 q 0,-0.987777 -0.366888,-1.453443 -0.366889,-0.465666 -1.143,-0.465666 -0.479777,0 -0.917221,0.239888 -0.437444,0.239889 -0.705555,0.733778 -0.268111,0.493888 -0.268111,1.255888 v 3.838219 q 0,0.197555 -0.197555,0.197555 z m 12.728226,0.155222 q -1.241777,0 -2.144887,-0.536222 -0.903111,-0.52211 -1.382888,-1.439332 -0.479777,-0.931332 -0.479777,-2.130776 0,-1.213555 0.479777,-2.130776 0.479777,-0.931333 1.382888,-1.453443 0.90311,-0.536222 2.144887,-0.536222 1.213555,0 2.060221,0.564444 0.860777,0.564444 1.28411,1.580443 0.437444,1.015999 0.395111,2.384776 -0.02822,0.197555 -0.211667,0.197555 h -5.418662 q 0.141111,0.818444 0.620888,1.284111 0.493889,0.451555 1.28411,0.451555 1.185333,0 1.735665,-0.903111 0.09878,-0.127 0.268111,-0.08467 l 1.354666,0.465666 q 0.197555,0.08467 0.112889,0.268111 -0.522111,1.03011 -1.453444,1.523999 -0.931332,0.493888 -2.031998,0.493888 z m 1.622777,-4.981218 q -0.141111,-0.705555 -0.578556,-1.086555 -0.423333,-0.395111 -1.058332,-0.395111 -0.691444,0 -1.185332,0.395111 -0.479778,0.381 -0.663222,1.086555 z m 6.674554,4.981218 q -1.28411,0 -1.975554,-0.804332 -0.677332,-0.804333 -0.677332,-2.412999 v -3.076219 h -1.157111 q -0.197555,0 -0.197555,-0.197556 v -1.382888 q 0,-0.197555 0.197555,-0.197555 h 1.157111 v -2.130776 q 0,-0.197556 0.197555,-0.197556 h 1.594554 q 0.197556,0 0.197556,0.197556 v 2.130776 h 1.876776 q 0.197555,0 0.197555,0.197555 v 1.382888 q 0,0.197556 -0.197555,0.197556 H 56.66374 v 3.203219 q 0,1.28411 0.888999,1.28411 0.366889,0 0.592666,-0.380999 0.09878,-0.183445 0.268111,-0.09878 l 1.199444,0.536222 q 0.112888,0.07056 0.112888,0.169333 0,0.08467 -0.05644,0.155222 -0.423333,0.776111 -1.044221,1.100666 -0.620889,0.324555 -1.298222,0.324555 z m 6.914455,0 q -1.241777,0 -2.158999,-0.52211 -0.917221,-0.522111 -1.41111,-1.439333 -0.493888,-0.931332 -0.493888,-2.144887 0,-1.227666 0.493888,-2.144887 0.508,-0.931333 1.41111,-1.453443 0.917222,-0.522111 2.144887,-0.522111 1.340555,0 2.243665,0.564444 0.917222,0.564444 1.354666,1.735665 0.01411,0.02822 0.01411,0.07056 0,0.141111 -0.155222,0.183444 l -1.382888,0.395111 q -0.09878,0 -0.197555,-0.141111 -0.536222,-1.001888 -1.749777,-1.001888 -0.719666,0 -1.199443,0.324555 -0.465666,0.310444 -0.705555,0.832555 -0.225778,0.522111 -0.225778,1.15711 0,0.620889 0.225778,1.142999 0.239889,0.522111 0.705555,0.846666 0.479777,0.310444 1.199443,0.310444 0.620889,0 1.072444,-0.26811 0.451555,-0.268111 0.691444,-0.790222 0.127,-0.169333 0.268111,-0.112889 l 1.453443,0.352778 q 0.197556,0.04233 0.112889,0.239888 -0.465666,1.227666 -1.439332,1.806221 -0.959555,0.578555 -2.271887,0.578555 z m 8.466651,0 q -1.128888,0 -1.961443,-0.52211 -0.832555,-0.522111 -1.28411,-1.439333 -0.451555,-0.931332 -0.451555,-2.144887 0,-1.227666 0.451555,-2.144887 0.451555,-0.931333 1.28411,-1.453443 0.832555,-0.522111 1.961443,-0.522111 0.832555,0 1.495777,0.338666 0.663221,0.324556 1.086554,0.903111 l 0.05645,-0.889 q 0,-0.197555 0.211666,-0.197555 h 1.425221 q 0.211667,0 0.211667,0.197555 v 7.521217 q 0,0.197555 -0.211667,0.197555 h -1.425221 q -0.211666,0 -0.211666,-0.197555 l -0.05645,-0.889 q -0.423333,0.578556 -1.086554,0.903111 -0.663222,0.338666 -1.495777,0.338666 z m -1.650999,-4.10633 q 0,1.015999 0.592666,1.66511 0.606778,0.634999 1.552221,0.634999 0.959555,0 1.552221,-0.634999 0.592667,-0.649111 0.592667,-1.66511 0,-1.03011 -0.592667,-1.66511 -0.592666,-0.64911 -1.552221,-0.64911 -0.945443,0 -1.552221,0.64911 -0.592666,0.635 -0.592666,1.66511 z m 11.048994,4.10633 q -1.28411,0 -2.173109,-0.550333 -0.889,-0.536221 -1.269999,-1.566332 -0.01411,-0.02822 -0.01411,-0.07055 0,-0.127 0.155222,-0.169333 l 1.453443,-0.395111 q 0.141111,0 0.183444,0.141111 0.282222,0.479777 0.677333,0.663221 0.409222,0.183445 0.917222,0.183445 0.493888,0 0.818444,-0.112889 0.338666,-0.127 0.338666,-0.465666 0,-0.254 -0.282222,-0.409222 -0.268111,-0.169333 -0.888999,-0.352778 l -0.381,-0.112889 q -1.425222,-0.409226 -2.032,-1.086559 -0.606777,-0.691444 -0.606777,-1.594555 0,-0.677332 0.381,-1.199443 0.381,-0.536222 1.058332,-0.832555 0.691444,-0.296333 1.580444,-0.296333 1.142999,0 1.93322,0.493888 0.804333,0.493889 1.157111,1.495777 0.02822,0.05644 0.02822,0.09878 0,0.112888 -0.141111,0.141111 l -1.396999,0.451555 q -0.02822,0.01411 -0.08467,0.01411 -0.09878,0 -0.169333,-0.127 -0.211666,-0.366889 -0.536222,-0.578555 -0.324555,-0.225778 -0.832555,-0.225778 -0.380999,0 -0.663221,0.127 -0.268111,0.127 -0.268111,0.437444 0,0.268111 0.282222,0.451556 0.296333,0.183444 0.945443,0.338666 l 0.366889,0.09878 q 1.467554,0.352777 2.031998,1.001888 0.564444,0.634999 0.564444,1.622776 0,0.719666 -0.409221,1.255888 -0.395111,0.536222 -1.100666,0.832555 -0.705555,0.296333 -1.622777,0.296333 z M 86.94618,29.19797 q -0.197556,0 -0.197556,-0.197555 V 17.937312 q 0,-0.197555 0.197556,-0.197555 h 1.580443 q 0.197555,0 0.197555,0.197555 v 4.317997 q 0.451556,-0.578555 1.114777,-0.846666 0.663222,-0.282222 1.382888,-0.282222 1.382888,0 2.130776,0.77611 0.762,0.776111 0.762,2.144888 v 4.952996 q 0,0.197555 -0.197556,0.197555 h -1.594554 q -0.197555,0 -0.197555,-0.197555 v -4.148664 q 0,-0.987777 -0.366889,-1.453443 -0.366889,-0.465666 -1.142999,-0.465666 -0.479778,0 -0.917222,0.239888 -0.437444,0.239889 -0.705555,0.733778 -0.268111,0.493888 -0.268111,1.255888 v 3.838219 q 0,0.197555 -0.197555,0.197555 z"
       id="text2"
       aria-label="netcash" /></g></svg>
