<?xml version="1.0" encoding="UTF-8" standalone="no"?>
<!-- Created with Inkscape (http://www.inkscape.org/) -->

<svg
   width="10.8474mm"
   height="5.8209949mm"
   viewBox="0 0 10.8474 5.8209949"
   version="1.1"
   id="svg1"
   xmlns="http://www.w3.org/2000/svg"
   xmlns:svg="http://www.w3.org/2000/svg">
  <defs
     id="defs1" />
  <g
     id="layer1"
     transform="translate(-170.39173,-118.79789)">
    <path
       id="path10"
       style="baseline-shift:baseline;display:inline;overflow:visible;vector-effect:none;stroke-width:0.265906;stroke-linecap:round;stroke-linejoin:round;enable-background:accumulate;stop-color:#000000"
       d="m 180.59489,118.7982 a 0.66572642,0.663801 0 0 0 -0.0869,0.003 0.66572642,0.663801 0 0 0 -0.44936,0.24011 l -3.23606,3.94184 -0.003,-0.002 a 0.66572642,0.663801 0 0 0 -0.9393,0.0659 0.66572642,0.663801 0 0 0 0.066,0.93606 l 0.5201,0.45066 a 0.66579299,0.66386738 0 0 0 0.95178,-0.0804 l 3.67034,-4.4708 a 0.66572642,0.663801 0 0 0 -0.0931,-0.93399 0.66572642,0.663801 0 0 0 -0.401,-0.1504 z m -3.72911,0.0223 a 0.66572642,0.663801 0 0 0 -0.0869,0.003 0.66572642,0.663801 0 0 0 -0.44884,0.24011 l -3.20849,3.90761 -1.59671,-1.56978 a 0.66572642,0.663801 0 0 0 -0.94137,0.007 0.66572642,0.663801 0 0 0 0.007,0.93918 l 2.1168,2.08008 a 0.66579299,0.66386738 0 0 0 0.98246,-0.0519 l 3.67034,-4.47082 a 0.66572642,0.663801 0 0 0 -0.0931,-0.93451 0.66572642,0.663801 0 0 0 -0.40099,-0.14987 z" />
  </g>
</svg>
