<?xml version="1.0" encoding="UTF-8" standalone="no"?>
<!-- Created with Inkscape (http://www.inkscape.org/) -->

<svg
   width="12.435392mm"
   height="10.847917mm"
   viewBox="0 0 12.435392 10.847917"
   version="1.1"
   id="svg1"
   xmlns="http://www.w3.org/2000/svg"
   xmlns:svg="http://www.w3.org/2000/svg">
  <defs
     id="defs1" />
  <g
     id="layer1"
     transform="translate(-135.20211,-134.9375)">
    <path
       id="path15"
       style="baseline-shift:baseline;display:inline;overflow:visible;vector-effect:none;stroke-width:0.265964;stroke-linecap:round;stroke-linejoin:round;enable-background:accumulate;stop-color:#000000"
       d="m 136.14384,134.9375 a 0.92932495,0.93243796 0 0 0 -0.92932,0.93244 0.92932495,0.93243796 0 0 0 0.92932,0.93243 h 10.56433 a 0.92932495,0.93243796 0 0 0 0.92933,-0.93243 0.92932495,0.93243796 0 0 0 -0.92933,-0.93244 z m 0,4.48372 a 0.92932495,0.93243796 0 0 0 -0.92932,0.93243 0.92932495,0.93243796 0 0 0 0.92932,0.93244 h 10.56433 a 0.92932495,0.93243796 0 0 0 0.92933,-0.93244 0.92932495,0.93243796 0 0 0 -0.92933,-0.93243 z m -0.0124,4.49932 a 0.92932495,0.93243796 0 0 0 -0.92933,0.93244 0.92932495,0.93243796 0 0 0 0.92933,0.93244 h 10.38075 a 0.92932495,0.93243796 0 0 0 0.92932,-0.93244 0.92932495,0.93243796 0 0 0 -0.92932,-0.93244 z" />
  </g>
</svg>
