<?xml version="1.0" encoding="UTF-8" standalone="no"?>
<!-- Created with Inkscape (http://www.inkscape.org/) -->

<svg
   width="95"
   height="95"
   viewBox="0 0 25.135416 25.135417"
   version="1.1"
   id="svg1"
   xmlns="http://www.w3.org/2000/svg"
   xmlns:svg="http://www.w3.org/2000/svg">
  <defs
     id="defs1" />
  <g
     id="layer1">
    <path
       id="path30"
       style="display:inline;stroke-width:0.0926042;stroke-linecap:round;stroke-linejoin:round;paint-order:markers fill stroke"
       d="M 1.190625,0 C 0.5310187,0 0,0.5310188 0,1.190625 v 22.754166 c 0,0.659607 0.5310187,1.190625 1.190625,1.190625 h 22.754167 c 0.659606,0 1.190625,-0.531018 1.190625,-1.190625 V 1.190625 C 25.135417,0.5310188 24.604398,0 23.944792,0 Z m 5.1381868,9.307441 c 0.742961,0 1.309084,0.2068221 1.706356,0.6190853 a 0.04013717,0.04013717 0 0 0 0,5.291e-4 c 0.405241,0.4127446 0.608748,0.9828746 0.608748,1.7182416 v 4.031795 c 0,0.04692 -0.01111,0.07517 -0.02842,0.0925 -0.0173,0.0173 -0.04506,0.02791 -0.09198,0.02791 h -1.298112 c -0.04692,0 -0.07468,-0.01058 -0.09198,-0.02791 -0.01736,-0.01733 -0.02894,-0.04558 -0.02894,-0.0925 v -3.377571 c 0,-0.541006 -0.09931,-0.944134 -0.306959,-1.207677 -0.20763,-0.263533 -0.533025,-0.394293 -0.9622241,-0.394293 -0.2670414,0 -0.5235311,0.06683 -0.7663604,0.199988 -0.2445755,0.13412 -0.4410815,0.339754 -0.5896292,0.6134 -0.1496245,0.275619 -0.2232422,0.623054 -0.2232422,1.041281 v 3.124872 c 0,0.04692 -0.011113,0.07517 -0.028422,0.0925 -0.017304,0.0173 -0.04558,0.02791 -0.092501,0.02791 H 2.8489195 c -0.046916,0 -0.074679,-0.01058 -0.091982,-0.02791 -0.01733,-0.01733 -0.02894,-0.04558 -0.02894,-0.0925 V 9.5544692 c 0,-0.046926 0.011642,-0.075171 0.02894,-0.092501 0.017304,-0.017357 0.045069,-0.028422 0.091982,-0.028422 h 1.1720221 c 0.051197,0 0.082368,0.011774 0.1012852,0.029453 0.018918,0.017674 0.030491,0.045022 0.030491,0.091469 a 0.04013717,0.04013717 0 0 0 0,0.00212 l 0.034623,0.7353568 a 0.04013717,0.04013717 0 0 0 0.072864,0.02066 C 4.4937415,9.9736036 4.7937049,9.7221489 5.1624732,9.5565806 5.5326702,9.3903667 5.9207373,9.3074992 6.3288118,9.3074992 Z m 6.8812332,0 c 0.652357,0 1.202068,0.1512861 1.654162,0.4526862 a 0.04013717,0.04013717 0 0 0 5.29e-4,0 c 0.460417,0.3019078 0.8034,0.7232628 1.030428,1.2681398 a 0.04013717,0.04013717 0 0 0 0,5.29e-4 c 0.234265,0.544095 0.340762,1.185006 0.318325,1.921849 -0.007,0.04633 -0.02193,0.07648 -0.04186,0.09508 -0.02024,0.01892 -0.04786,0.02997 -0.09043,0.02997 h -4.410583 a 0.04013717,0.04013717 0 0 0 -0.03979,0.04651 c 0.07766,0.450424 0.250444,0.807627 0.517798,1.06712 a 0.04013717,0.04013717 0 0 0 5.29e-4,0.0011 c 0.27586,0.252214 0.635786,0.378272 1.072287,0.378272 0.653455,0 1.141627,-0.253971 1.44694,-0.754994 0.04466,-0.05554 0.09464,-0.07027 0.173633,-0.05064 h 5.29e-4 l 1.096572,0.376721 c 0.04778,0.0205 0.07268,0.04435 0.08268,0.06821 0.0099,0.02373 0.0088,0.05319 -0.01085,0.09612 v 5.29e-4 c -0.280104,0.552178 -0.668179,0.957731 -1.16582,1.221632 -0.49965,0.264961 -1.043755,0.397909 -1.635043,0.397909 -0.668089,0 -1.242309,-0.144621 -1.725475,-0.431498 a 0.04013717,0.04013717 0 0 0 -5.29e-4,0 c -0.483834,-0.27972 -0.853515,-0.663287 -1.110521,-1.154451 v -5.29e-4 c -0.257001,-0.499063 -0.3855062,-1.070793 -0.3855062,-1.716175 0,-0.653286 0.1285112,-1.224349 0.3855062,-1.715656 a 0.04013717,0.04013717 0 0 0 0,-5.3e-4 c 0.257066,-0.499012 0.626713,-0.88715 1.110525,-1.1668545 a 0.04013717,0.04013717 0 0 0 5.29e-4,-5.292e-4 c 0.48315,-0.2868665 1.057365,-0.4304665 1.725475,-0.4304665 z m 3.792532,0.036174 h 5.515944 c 0.04422,0 0.07422,0.011165 0.0925,0.029456 0.01831,0.018283 0.02894,0.04722 0.02894,0.091466 v 1.301213 c -3e-6,0.04118 -0.01088,0.0687 -0.02842,0.08527 -0.01839,0.01738 -0.04856,0.02791 -0.09302,0.02791 h -1.866554 a 0.06637266,0.06637266 0 0 0 -0.06614,0.06666 v 4.886007 c 0,0.04422 -0.01117,0.07422 -0.02945,0.0925 -0.01828,0.01831 -0.04775,0.02894 -0.09199,0.02894 h -1.407665 c -0.04079,0 -0.068,-0.01109 -0.08475,-0.02894 -0.01738,-0.01852 -0.0279,-0.04781 -0.02791,-0.0925 V 10.94559 a 0.06637266,0.06637266 0 0 0 -0.06615,-0.06666 h -1.875338 c -0.04106,0 -0.06893,-0.01042 -0.08578,-0.02739 -0.01667,-0.01677 -0.02687,-0.04411 -0.02687,-0.08578 V 9.4645373 c 0,-0.044696 0.01024,-0.074245 0.02739,-0.092498 0.01654,-0.017648 0.04404,-0.028424 0.08526,-0.028424 z m -3.803901,1.3193 c -0.382865,0 -0.714978,0.110096 -0.990121,0.330213 -0.267862,0.212712 -0.452194,0.516438 -0.553453,0.905888 a 0.04013717,0.04013717 0 0 0 0.03824,0.05012 h 2.837553 a 0.04013717,0.04013717 0 0 0 0.03876,-0.04754 c -0.07775,-0.38876 -0.238218,-0.69302 -0.482662,-0.906404 l -5.29e-4,-5.29e-4 C 13.849488,10.773741 13.55131,10.662901 13.198663,10.662901 Z m -8.3447096,7.257438 c 0.5011367,0 0.9207156,0.105257 1.2583213,0.31626 0.3428811,0.211007 0.5955981,0.535749 0.7591261,0.973584 0.0053,0.01056 0.0083,0.02344 0.0083,0.03927 0,0.05275 -0.02879,0.08701 -0.08682,0.102835 L 6.0172305,19.57451 c -0.036928,0 -0.07366,-0.02683 -0.1105879,-0.07958 -0.2004983,-0.37453 -0.5277138,-0.56172 -0.9813763,-0.56172 -0.269031,0 -0.4934744,0.06057 -0.6728275,0.181901 -0.1740799,0.116052 -0.3056466,0.27146 -0.3953245,0.466641 -0.084402,0.195177 -0.1266058,0.411673 -0.1266084,0.649054 0,0.232106 0.042206,0.445611 0.1266084,0.640789 0.089678,0.195178 0.2212446,0.353579 0.3953245,0.474906 0.1793558,0.116052 0.4037965,0.174149 0.6728275,0.174149 0.2321057,0 0.4321916,-0.05015 0.6009957,-0.150379 0.1688042,-0.100229 0.298413,-0.248203 0.3880909,-0.443383 0.047477,-0.0633 0.097629,-0.08413 0.1503785,-0.06304 l 0.8149374,0.197922 c 0.07385,0.01582 0.09521,0.06051 0.06356,0.134358 -0.17408,0.458938 -0.443201,0.796575 -0.8071852,1.012856 -0.3587089,0.216279 -0.7837514,0.32453 -1.2743392,0.32453 -0.4642114,0 -0.8678968,-0.09731 -1.2107809,-0.292489 C 3.3080404,22.04584 3.0449043,21.776719 2.8602754,21.433835 2.6756465,21.085675 2.5827725,20.684466 2.5827725,20.230806 c 0,-0.458935 0.092874,-0.859626 0.2775029,-1.20251 0.1899047,-0.34816 0.4530408,-0.620273 0.7906491,-0.815454 0.3428841,-0.19518 0.7440956,-0.292489 1.2030286,-0.292489 z m 5.0947794,0 c 0.3112352,0 0.5907722,0.06305 0.8387082,0.189654 0.247928,0.121327 0.451012,0.29066 0.609264,0.506944 l 0.03153,-0.498676 c -5e-6,-0.07385 0.03973,-0.111107 0.118854,-0.111107 h 0.798917 c 0.07913,0 0.118856,0.03726 0.118856,0.111107 v 4.217313 c 0,0.07385 -0.03973,0.111104 -0.118856,0.111104 h -0.798917 c -0.07913,0 -0.118854,-0.03725 -0.118854,-0.111104 l -0.03153,-0.498679 c -0.158252,0.216284 -0.361336,0.385617 -0.609264,0.506947 -0.247936,0.1266 -0.527473,0.189653 -0.8387082,0.189653 -0.422008,0 -0.788958,-0.09731 -1.10019,-0.292489 -0.31124,-0.19518 -0.551051,-0.464301 -0.719855,-0.807185 -0.168804,-0.34816 -0.253214,-0.749369 -0.253214,-1.203029 0,-0.458935 0.08441,-0.859626 0.253214,-1.20251 0.168804,-0.34816 0.408617,-0.620273 0.719855,-0.815454 0.311234,-0.19518 0.678182,-0.292489 1.10019,-0.292489 z m 5.5619332,0 c 0.427287,0 0.78825,0.09236 1.083657,0.276985 0.30068,0.184631 0.517178,0.464177 0.649055,0.83871 0.01056,0.02109 0.0155,0.03947 0.0155,0.05529 0,0.0422 -0.0263,0.06851 -0.07906,0.07906 l -0.783415,0.253215 c -0.01056,0.0053 -0.02643,0.0083 -0.04754,0.0083 -0.03693,0 -0.06819,-0.02384 -0.09457,-0.07131 -0.07913,-0.137152 -0.179946,-0.245401 -0.301273,-0.324527 -0.121328,-0.0844 -0.276733,-0.126608 -0.466638,-0.126608 -0.142428,0 -0.266052,0.02384 -0.371555,0.07131 -0.100229,0.04748 -0.150378,0.128897 -0.150378,0.244946 0,0.100229 0.05263,0.184637 0.158131,0.253214 0.110776,0.06857 0.287541,0.132141 0.530198,0.190169 l 0.205674,0.0553 c 0.548611,0.131876 0.928463,0.319066 1.139465,0.561723 0.211008,0.237379 0.316259,0.540764 0.316259,0.910021 0,0.269031 -0.07595,0.503897 -0.228928,0.70435 -0.147703,0.200454 -0.353774,0.356375 -0.617532,0.467154 -0.263755,0.110778 -0.567137,0.165883 -0.910021,0.165883 -0.480036,0 -0.886195,-0.10278 -1.218531,-0.308509 -0.332335,-0.200457 -0.57019,-0.493417 -0.712618,-0.878499 -0.0051,-0.01056 -0.0072,-0.02344 -0.0072,-0.03927 5e-6,-0.04748 0.0288,-0.07926 0.08682,-0.09508 l 0.814938,-0.221695 c 0.05275,0 0.08701,0.02633 0.102835,0.07907 0.105503,0.179356 0.232119,0.30349 0.379823,0.37207 0.152979,0.06857 0.324276,0.102836 0.514181,0.102836 0.184628,0 0.338074,-0.02085 0.459401,-0.06304 0.126606,-0.04748 0.189653,-0.134882 0.189653,-0.261482 0,-0.09495 -0.05263,-0.171416 -0.158128,-0.229445 -0.100227,-0.0633 -0.266054,-0.128828 -0.498163,-0.197402 l -0.213939,-0.06356 c -0.532789,-0.152977 -0.912638,-0.356061 -1.139465,-0.609267 -0.226833,-0.258479 -0.340548,-0.556908 -0.340548,-0.894519 0,-0.253204 0.07151,-0.477131 0.213939,-0.672309 0.142428,-0.200456 0.340043,-0.356375 0.593246,-0.467156 0.258482,-0.110776 0.554437,-0.165881 0.886767,-0.165881 z m 2.965712,0.06356 h 0.969449 c 0.06765,0 0.101286,0.03415 0.101286,0.101804 v 1.595252 h 1.697053 v -1.595252 c 0,-0.06765 0.03223,-0.101804 0.09612,-0.101804 h 0.96945 c 0.06765,0 0.101801,0.03415 0.101801,0.101804 v 4.385778 c 0,0.06765 -0.03415,0.101804 -0.101801,0.101804 h -0.96945 c -0.06389,0 -0.09612,-0.03415 -0.09612,-0.101804 v -1.690851 h -1.697053 v 1.690851 c 0,0.06765 -0.03363,0.101804 -0.101286,0.101804 h -0.969449 c -0.0639,0 -0.09612,-0.03415 -0.09612,-0.101804 v -4.385778 c 0,-0.06765 0.03222,-0.101804 0.09612,-0.101804 z m -8.250661,0.949296 c -0.3534352,0 -0.6433972,0.121145 -0.8702302,0.363802 -0.221554,0.237382 -0.332796,0.548712 -0.332796,0.933794 0,0.379807 0.111242,0.691137 0.332796,0.933794 0.226833,0.237382 0.516795,0.35605 0.8702302,0.35605 0.358709,0 0.648679,-0.118668 0.870234,-0.35605 0.221554,-0.242657 0.332277,-0.553987 0.332279,-0.933794 3e-6,-0.385082 -0.110725,-0.696412 -0.332279,-0.933794 -0.221555,-0.242657 -0.511525,-0.363802 -0.870234,-0.363802 z" />
  </g>
</svg>
