<?xml version="1.0" encoding="UTF-8" standalone="no"?>
<!-- Created with Inkscape (http://www.inkscape.org/) -->

<svg
   width="29.532499"
   height="22"
   viewBox="0 0 7.8138069 5.8208333"
   version="1.1"
   id="svg1"
   inkscape:version="1.3.2 (091e20e, 2023-11-25, custom)"
   sodipodi:docname="backspace.svg"
   xmlns:inkscape="http://www.inkscape.org/namespaces/inkscape"
   xmlns:sodipodi="http://sodipodi.sourceforge.net/DTD/sodipodi-0.dtd"
   xmlns="http://www.w3.org/2000/svg"
   xmlns:svg="http://www.w3.org/2000/svg">
  <sodipodi:namedview
     id="namedview1"
     pagecolor="#505050"
     bordercolor="#eeeeee"
     borderopacity="1"
     inkscape:showpageshadow="0"
     inkscape:pageopacity="0"
     inkscape:pagecheckerboard="0"
     inkscape:deskcolor="#505050"
     inkscape:document-units="mm"
     inkscape:zoom="24.440974"
     inkscape:cx="19.577779"
     inkscape:cy="17.695694"
     inkscape:window-width="2560"
     inkscape:window-height="1369"
     inkscape:window-x="-8"
     inkscape:window-y="-8"
     inkscape:window-maximized="1"
     inkscape:current-layer="layer1" />
  <defs
     id="defs1" />
  <g
     inkscape:label="Layer 1"
     inkscape:groupmode="layer"
     id="layer1">
    <path
       class="cls-1"
       d="m 7.8138071,0.5291667 v 4.7624999 c 0,0.2910417 -0.238125,0.5291667 -0.5291666,0.5291667 H 2.2628489 c -0.1693334,0 -0.3280834,-0.082021 -0.428625,-0.2169584 L 0.10120312,3.222625 c -0.13493749,-0.1852084 -0.13493749,-0.4365625 0,-0.6217709 L 1.8342239,0.2169583 C 1.9347655,0.079375 2.0935155,0 2.2628489,0 H 7.2846405 C 7.5756821,0 7.8138071,0.238125 7.8138071,0.5291667 Z M 5.1997238,2.9104166 6.4300363,1.6801041 c 0.1561042,-0.1534583 0.1561042,-0.4074583 0,-0.5609166 -0.1561041,-0.1561042 -0.4048125,-0.1561042 -0.5609166,0 L 4.6388072,2.3495 3.4084947,1.1191875 c -0.1561042,-0.1561042 -0.4048125,-0.1561042 -0.5609167,0 -0.1561041,0.1534583 -0.1561041,0.4074583 0,0.5609166 L 4.0778905,2.9104166 2.847578,4.1407291 c -0.1561041,0.1561042 -0.1561041,0.4048125 0,0.5609167 0.076729,0.076729 0.1799167,0.1164166 0.2804584,0.1164166 0.1005416,0 0.2037291,-0.039688 0.2804583,-0.1164166 L 4.6388072,3.4713333 5.8691197,4.7016458 c 0.076729,0.076729 0.1799166,0.1164166 0.2804583,0.1164166 0.1005417,0 0.2037292,-0.039688 0.2804583,-0.1164166 0.1561042,-0.1561042 0.1561042,-0.4048125 0,-0.5609167 z"
       id="path1"
       style="fill:#aaaaaa;stroke-width:0.264583" />
  </g>
</svg>
