<?xml version="1.0" encoding="UTF-8" standalone="no"?>
<!-- Created with Inkscape (http://www.inkscape.org/) -->

<svg
   width="28.679998"
   height="28.528151"
   viewBox="0 0 7.5882494 7.5480732"
   version="1.1"
   id="svg1"
   xmlns="http://www.w3.org/2000/svg"
   xmlns:svg="http://www.w3.org/2000/svg">
  <defs
     id="defs1" />
  <g
     id="layer1"
     transform="translate(-0.15264683,-0.1840343)">
    <path
       style="color:#000000;fill:#000000;stroke-linecap:round;stroke-linejoin:round;stroke-miterlimit:0;-inkscape-stroke:none"
       d="m 5.33447,2.8224021 a 0.30000049,0.30000049 0 0 0 -0.421875,0.04297 L 3.697751,4.3556051 2.871579,3.6954491 a 0.30000049,0.30000049 0 0 0 -0.421875,0.04687 0.30000049,0.30000049 0 0 0 0.04687,0.419922 l 1.058599,0.847661 a 0.30003049,0.30003049 0 0 0 0.419922,-0.04492 l 1.402344,-1.720703 a 0.30000049,0.30000049 0 0 0 -0.04297,-0.421875 z"
       id="path38" />
    <path
       style="color:#000000;fill:#000000;stroke-width:1.23272;stroke-linecap:round;stroke-linejoin:round;stroke-miterlimit:0;-inkscape-stroke:none"
       d="M 3.9556715,0.18403463 C 3.6548756,0.1837475 3.4802141,0.37048904 3.3450596,0.4973125 3.2099047,0.62413106 3.0905178,0.70994485 3.079268,0.71293045 3.0680083,0.71596875 2.9224263,0.70097225 2.7418669,0.65794825 2.5613086,0.6149241 2.3166825,0.53715499 2.0558879,0.68650315 1.7950937,0.83585495 1.7391742,1.0846908 1.6858083,1.2616786 1.6324375,1.4386668 1.5739139,1.5735523 1.5656671,1.5817311 1.5573768,1.5899226 1.4228212,1.6486933 1.2447348,1.7012609 1.0666484,1.7538285 0.81666268,1.8080567 0.66574986,2.0670277 0.51483727,2.3260011 0.59028526,2.5681138 0.6329963,2.7478437 0.67571953,2.9275713 0.69210647,3.073851 0.6890645,3.085032 0.68601999,3.0961861 0.59939426,3.2150908 0.47149881,3.3491595 0.34360266,3.4832208 0.15324237,3.6540632 0.15264823,3.9532663 0.15205532,4.2524693 0.33961356,4.4260168 0.46697701,4.560327 0.5943343,4.6946378 0.68288775,4.8130787 0.68587783,4.8242659 0.68892083,4.8354629 0.67128543,4.9805165 0.62784953,5.1601631 0.58441363,5.3398085 0.50838619,5.5829907 0.65827463,5.842252 0.8081581,6.1015138 1.0580358,6.1544952 1.2359135,6.2073993 c 0.177877,0.052909 0.3112426,0.1136035 0.3194566,0.1217983 0.00823,0.00824 0.067174,0.1420216 0.1198419,0.3191116 0.052667,0.1770899 0.1069315,0.4256966 0.367128,0.5755483 0.2602001,0.1498512 0.5060832,0.074331 0.6868123,0.031665 0.1807292,-0.042679 0.3278046,-0.059127 0.3390421,-0.056112 0.01121,0.00302 0.1282611,0.08929 0.2629108,0.2163729 0.134646,0.1270831 0.3086079,0.3160356 0.6094052,0.3163238 0.300796,2.864e-4 0.4728273,-0.1886186 0.6079817,-0.3154421 0.1351562,-0.1268187 0.2545431,-0.2126325 0.2657917,-0.2156179 0.01126,-0.00304 0.1570692,0.014357 0.3376275,0.057381 0.1805595,0.043024 0.42496,0.1184028 0.6857537,-0.030954 C 6.0984593,7.0781225 6.1543789,6.829288 6.2077447,6.652299 6.2611155,6.4753107 6.3198635,6.342817 6.3281102,6.334637 6.3364005,6.3264455 6.4733607,6.2674479 6.6514471,6.2148802 6.8295323,6.1623127 7.0792928,6.1056979 7.2302054,5.8467244 7.3811178,5.5877497 7.3032702,5.3458635 7.2605468,5.1661347 7.2178236,4.9864072 7.201449,4.8401263 7.2044786,4.8289465 7.2075231,4.8177924 7.2967738,4.7010479 7.4246733,4.5669826 7.5525694,4.4329212 7.7403009,4.2599165 7.7408949,3.9607121 7.7414878,3.6615092 7.554154,3.4903533 7.4267917,3.3560418 7.2994344,3.2217311 7.2132843,3.1030633 7.2102944,3.0918774 7.2072512,3.0806804 7.2222491,2.9334628 7.2656849,2.7538162 7.3091209,2.5741708 7.3877772,2.3331522 7.2378974,2.07389 7.088014,1.8146282 6.8379094,1.7592566 6.660033,1.7063524 6.482156,1.6534433 6.3463859,1.592977 6.3381718,1.5847809 6.329945,1.5765428 6.2709974,1.4427593 6.21833,1.2656694 6.1656626,1.0885807 6.1113985,0.83997395 5.8512021,0.69012235 5.591002,0.54027102 5.3477487,0.61795098 5.1670194,0.66062985 4.9862915,0.70330855 4.8389897,0.71735765 4.8277521,0.71435555 4.8165417,0.71133845 4.6970913,0.62529178 4.5624392,0.49820926 4.4277932,0.37112616 4.256459,0.18433737 3.9556629,0.18404902 Z m -0.00173,0.59829802 c -0.014979,-6.82e-5 0.071406,0.035172 0.1936509,0.1505537 0.1222433,0.11537895 0.2591564,0.28973215 0.5238602,0.36057445 0.2647029,0.070845 0.4689394,-0.011345 0.6330215,-0.050107 0.1640846,-0.038749 0.2569845,-0.027586 0.2440258,-0.03513 -0.012991,-0.00742 0.043996,0.066914 0.091809,0.2276953 0.047813,0.1607811 0.078762,0.379404 0.2722631,0.5724411 0.193496,0.1930389 0.4121536,0.2234308 0.5736473,0.2714623 0.1614952,0.048034 0.2367817,0.104618 0.2293231,0.091719 -0.00743,-0.012907 0.00433,0.081401 -0.035118,0.2444969 -0.039435,0.163101 -0.1225731,0.3660755 -0.052127,0.6295849 0.070445,0.2635083 0.2439029,0.3988513 0.3595359,0.5207924 0.1156366,0.1219396 0.1515643,0.2080023 0.1515942,0.1931108 8.37e-5,-0.0149 -0.035207,0.07345 -0.1513258,0.195169 -0.1161171,0.1217125 -0.291763,0.2556851 -0.3632504,0.5190585 -0.07149,0.2633737 0.011157,0.4688344 0.049959,0.6320095 0.03879,0.163175 0.027473,0.2555941 0.035071,0.2426977 0.00747,-0.01293 -0.067315,0.043831 -0.2290008,0.091553 -0.1616858,0.047723 -0.3817296,0.076342 -0.575991,0.2690097 -0.1942626,0.1926676 -0.2248121,0.4125869 -0.2732626,0.5732749 -0.048453,0.1606884 -0.1054148,0.2356321 -0.092439,0.2282 0.012984,-0.0074 -0.081839,0.00439 -0.2457648,-0.034685 C 5.1294942,6.6367524 4.9252972,6.5518697 4.6603123,6.6222007 4.3953292,6.692539 4.2593156,6.8676055 4.136608,6.9827494 4.013902,7.0978968 3.9249413,7.1339492 3.9399108,7.1339628 3.9548904,7.134031 3.8682795,7.0964036 3.7460344,6.9810187 3.6237911,6.8656398 3.4895083,6.6934513 3.2248043,6.6226078 2.9601002,6.551763 2.7534616,6.6341797 2.5893782,6.6729414 2.4252949,6.7116908 2.3321736,6.6981809 2.3451214,6.705624 2.3581128,6.713042 2.3011255,6.6387098 2.2533121,6.4779287 2.2054987,6.3171488 2.1745497,6.0985247 1.9810477,5.9054877 1.7875518,5.7124501 1.5688954,5.682058 1.4074004,5.6340254 1.2459052,5.5859916 1.1706199,5.5294073 1.1780785,5.5423066 1.1855044,5.555214 1.1739753,5.4633048 1.2134224,5.3002001 1.2528575,5.1370991 1.3381733,4.9315074 1.2677357,4.6679972 1.1972908,4.4044889 1.0214295,4.2693727 0.90579649,4.1474328 0.7901598,4.025492 0.75423095,3.9394294 0.75420226,3.9543208 0.75411855,3.9692211 0.7896343,3.8832574 0.90575249,3.7615435 1.0218708,3.6398309 1.1972899,3.5034668 1.2687785,3.2400932 1.3402684,2.9767208 1.2578473,2.7736492 1.219045,2.6104742 1.1802553,2.4472992 1.1939313,2.3546574 1.1864356,2.3675455 c -0.00747,0.01293 0.067089,-0.04623 0.2287756,-0.09394 0.1616846,-0.047723 0.3793251,-0.076115 0.5735876,-0.268783 0.1942615,-0.1926662 0.2250365,-0.4101963 0.2734883,-0.5708833 0.048453,-0.1606883 0.1078181,-0.2358601 0.094839,-0.2284276 -0.012984,0.0074 0.079427,-0.00416 0.2433603,0.034912 0.1639298,0.039061 0.3703046,0.1213268 0.6352887,0.050987 C 3.500758,1.2210722 3.6369972,1.0483961 3.7597036,0.93325225 3.8824108,0.81810465 3.9689682,0.78228035 3.9539974,0.78226565 Z"
       id="path39" />
  </g>
</svg>
