<?xml version="1.0" encoding="UTF-8" standalone="no"?>
<!-- Created with Inkscape (http://www.inkscape.org/) -->

<svg
   width="27.99951"
   height="26.611717"
   viewBox="0 0 7.4082035 7.0410168"
   version="1.1"
   id="svg1"
   xmlns="http://www.w3.org/2000/svg"
   xmlns:svg="http://www.w3.org/2000/svg">
  <defs
     id="defs1" />
  <g
     id="layer1"
     transform="translate(-0.26733482,-0.44725072)">
    <path
       style="color:#000000;fill:#000000;stroke-linecap:round;stroke-linejoin:round;stroke-miterlimit:0;-inkscape-stroke:none"
       d="m 0.56811684,4.2773298 a 0.30065399,0.30065399 0 0 0 -0.300782,0.300782 v 1.132812 c 0,0.980248 0.79709596,1.777344 1.77734396,1.777344 h 3.851563 c 0.980248,0 1.779297,-0.797096 1.779297,-1.777344 v -1.132812 a 0.30065399,0.30065399 0 0 0 -0.300782,-0.300782 0.30065399,0.30065399 0 0 0 -0.300781,0.300782 v 1.132812 c 0,0.657691 -0.520044,1.175781 -1.177734,1.175781 h -3.851563 c -0.65769,0 -1.17578096,-0.51809 -1.17578096,-1.175781 v -1.132812 a 0.30065399,0.30065399 0 0 0 -0.300781,-0.300782 z"
       id="path2" />
    <path
       style="color:#000000;fill:#000000;stroke-linecap:round;stroke-linejoin:round;stroke-miterlimit:0;-inkscape-stroke:none"
       d="m 5.6599138,3.3945178 a 0.30000049,0.30000049 0 0 0 -0.210938,0.08594 l -1.576172,1.550782 -1.535156,-1.535157 a 0.30000049,0.30000049 0 0 0 -0.425781,0 0.30000049,0.30000049 0 0 0 0,0.423829 l 1.748047,1.746093 a 0.30003049,0.30003049 0 0 0 0.421875,0.002 l 1.787109,-1.759815 a 0.30000049,0.30000049 0 0 0 0.0039,-0.423828 0.30000049,0.30000049 0 0 0 -0.21289,-0.08984 z"
       id="path3" />
    <path
       style="color:#000000;fill:#000000;stroke-linecap:round;stroke-linejoin:round;stroke-miterlimit:0;-inkscape-stroke:none"
       d="m 3.8591318,0.44725175 a 0.30000049,0.30000049 0 0 0 -0.300781,0.298828 V 5.3613148 a 0.30000049,0.30000049 0 0 0 0.300781,0.298828 0.30000049,0.30000049 0 0 0 0.298828,-0.298828 V 0.74607975 a 0.30000049,0.30000049 0 0 0 -0.298828,-0.298828 z"
       id="path4" />
  </g>
</svg>
