<?xml version="1.0" encoding="UTF-8" standalone="no"?>
<!-- Created with Inkscape (http://www.inkscape.org/) -->

<svg
   width="28.870571"
   height="28.863186"
   viewBox="0 0 7.6386718 7.6367179"
   version="1.1"
   id="svg1"
   xmlns="http://www.w3.org/2000/svg"
   xmlns:svg="http://www.w3.org/2000/svg">
  <defs
     id="defs1" />
  <g
     id="layer1"
     transform="translate(-0.14985895,-0.15223054)">
    <path
       style="color:#000000;fill:#000000;stroke-linecap:round;stroke-linejoin:round;stroke-miterlimit:0;-inkscape-stroke:none"
       d="m 1.02877,0.15223054 c -0.48173002,0 -0.87891002,0.397183 -0.87891002,0.87890596 v 1.5039059 a 0.30000001,0.30000001 0 0 0 0.30078,0.300781 0.30000001,0.30000001 0 0 0 0.30078,-0.300781 V 1.0311365 c 0,-0.15745896 0.11989,-0.27929696 0.27735002,-0.27929696 h 1.58984 a 0.30000001,0.30000001 0 0 0 0.29883,-0.298828 0.30000001,0.30000001 0 0 0 -0.29883,-0.300781 z"
       id="path16" />
    <path
       style="color:#000000;fill:#000000;stroke-linecap:round;stroke-linejoin:round;stroke-miterlimit:0;-inkscape-stroke:none"
       d="m 0.45063998,5.0506674 a 0.30000001,0.30000001 0 0 0 -0.30078,0.298828 v 1.605469 c 0,0.457173 0.37681,0.833985 0.83399,0.833984 H 2.61861 A 0.30000001,0.30000001 0 0 0 2.91744,7.4901204 0.30000001,0.30000001 0 0 0 2.61861,7.1893394 H 0.98384998 c -0.13291,0 -0.23243,-0.101466 -0.23243,-0.234375 v -1.605469 a 0.30000001,0.30000001 0 0 0 -0.30078,-0.298828 z"
       id="path15" />
    <path
       style="color:#000000;fill:#000000;stroke-linecap:round;stroke-linejoin:round;stroke-miterlimit:0;-inkscape-stroke:none"
       d="m 7.48775,5.0506674 a 0.30000001,0.30000001 0 0 0 -0.30078,0.298828 v 1.66211 c 0,0.102167 -0.0756,0.177734 -0.17773,0.177734 H 5.54439 a 0.30000001,0.30000001 0 0 0 -0.29882,0.300781 0.30000001,0.30000001 0 0 0 0.29882,0.298828 h 1.46485 c 0.42643,0 0.77929,-0.350912 0.77929,-0.777343 v -1.66211 A 0.30000001,0.30000001 0 0 0 7.48775,5.0506674 Z"
       id="path14" />
    <path
       style="color:#000000;fill:#000000;stroke-linecap:round;stroke-linejoin:round;stroke-miterlimit:0;-inkscape-stroke:none"
       d="m 5.54439,0.15223054 a 0.30000001,0.30000001 0 0 0 -0.29882,0.300781 0.30000001,0.30000001 0 0 0 0.29882,0.298828 h 1.35157 c 0.16432,0 0.29101,0.126687 0.29101,0.29101596 v 1.4921869 a 0.30000001,0.30000001 0 0 0 0.30078,0.300781 0.30000001,0.30000001 0 0 0 0.30078,-0.300781 V 1.0428555 c 0,-0.48859196 -0.40398,-0.89062496 -0.89257,-0.89062496 z"
       id="path13" />
    <path
       style="color:#000000;fill:#000000;stroke-linecap:round;stroke-linejoin:round;stroke-miterlimit:0;-inkscape-stroke:none"
       d="m 2.23385,1.9315274 a 0.30000049,0.30000049 0 0 0 -0.21289,0.08594 0.30000049,0.30000049 0 0 0 -0.006,0.423828 l 3.46679,3.546875 a 0.30000049,0.30000049 0 0 0 0.42383,0.0039 0.30000049,0.30000049 0 0 0 0.006,-0.423828 l -3.4668,-3.544922 a 0.30000049,0.30000049 0 0 0 -0.21093,-0.0918 z"
       id="path25" />
    <path
       style="color:#000000;fill:#000000;stroke-linecap:round;stroke-linejoin:round;stroke-miterlimit:0;-inkscape-stroke:none"
       d="m 5.69478,2.0076984 a 0.30000049,0.30000049 0 0 0 -0.21289,0.08594 l -3.54492,3.464844 a 0.30000049,0.30000049 0 0 0 -0.004,0.423828 0.30000049,0.30000049 0 0 0 0.42382,0.0059 l 3.54493,-3.466797 a 0.30000049,0.30000049 0 0 0 0.004,-0.423828 0.30000049,0.30000049 0 0 0 -0.21094,-0.08984 z"
       id="path25-1" />
  </g>
</svg>
