<?xml version="1.0" encoding="UTF-8" standalone="no"?>
<!-- Created with Inkscape (http://www.inkscape.org/) -->

<svg
   width="72.680305"
   height="43.657845"
   viewBox="0 0 72.680305 43.657845"
   version="1.1"
   id="svg1"
   xmlns="http://www.w3.org/2000/svg"
   xmlns:svg="http://www.w3.org/2000/svg">
  <defs
     id="defs1" />
  <g
     id="layer1"
     transform="translate(-0.10437804)">
    <g
       id="g1"
       transform="matrix(0.65990428,0,0,0.65990428,8.0232327,6.5990432)"
       style="fill:#f94958;fill-opacity:1">
      <path
         d="m -10.27349,-9.9997718 c -0.522168,-1.889e-4 -0.945475,0.4231559 -0.945286,0.9453355 V 19.232644 c -1.89e-4,0.52218 0.423118,0.945525 0.945286,0.945336 h 6.4589858 c 0.5221796,1.89e-4 0.9454866,-0.423156 0.9452977,-0.945336 V 5.3107922 L 9.1698739,19.771718 c 0.176504,0.254363 0.4660158,0.405959 0.7754079,0.406262 h 5.6171722 c 0.522179,1.89e-4 0.945524,-0.423156 0.945335,-0.945336 V -9.0544363 c 1.89e-4,-0.5221796 -0.423156,-0.9455244 -0.945335,-0.9453355 H 9.1034676 C 8.5812881,-9.9999607 8.157981,-9.5766159 8.15817,-9.0544363 V 4.7561087 L -3.7188065,-9.5935103 c -0.1780158,-0.25663 -0.4710426,-0.4084917 -0.7831938,-0.4062615 z"
         style="color:#000000;-inkscape-font-specification:'SUSE, Ultra-Bold';display:inline;fill:#f94958;fill-opacity:1;stroke-width:3.77953;stroke-linecap:round;stroke-linejoin:round;stroke-miterlimit:0;-inkscape-stroke:none"
         id="path161" />
      <path
         d="m 3.7304534,24.769728 c -3.01810399,0 -5.7482835,0.648113 -8.1347907,1.970721 -2.3779275,1.317884 -4.2694677,3.17794 -5.6171717,5.529298 v 0.0076 c -1.327472,2.337487 -1.978496,5.042381 -1.978496,8.060523 v 0.287244 c 0,2.992479 0.654388,5.694236 1.978496,8.054665 v 0.0076 c 1.3189418,2.322519 3.1697008,4.165455 5.4921828,5.484359 v 0.0076 c 2.3603905,1.324119 5.06808191,1.978507 8.0605607,1.978507 2.3460661,0 4.4754898,-0.413594 6.3632504,-1.255862 1.8793321,-0.838488 3.4649571,-2.05096 4.7168131,-3.623017 1.252157,-1.57251 2.120088,-3.452598 2.605455,-5.589846 v -0.0076 c 0.514431,-2.176176 0.600264,-4.578482 0.265701,-7.199244 C 17.422734,38.0101 17.020935,37.656109 16.54498,37.656109 H 4.1738676 C 3.651688,37.655838 3.2283809,38.079183 3.2285699,38.601363 v 5.255848 c -1.89e-4,0.522142 0.4231559,0.945487 0.9452977,0.945298 h 4.9296756 c -0.2067402,0.66754 -0.5026016,1.235792 -0.9589795,1.71292 -0.4904315,0.512731 -1.1088378,0.917367 -1.8886678,1.224605 -0.00261,0.0026 -0.00378,0.0038 -0.00756,0.0076 -0.7348536,0.298582 -1.5794646,0.457058 -2.5546961,0.457058 -1.4137701,0 -2.6330079,-0.322016 -3.72071817,-0.95898 C -1.0992916,46.602358 -1.9251183,45.745463 -2.5505168,44.616745 v -0.0076 C -3.1677136,43.46724 -3.4880286,42.160317 -3.4880286,40.624808 v -0.289134 c 0,-1.538192 0.3220158,-2.829127 0.9375118,-3.941404 0.6213544,-1.123314 1.4572725,-1.983799 2.55273077,-2.628889 1.11575433,-0.64097 2.37909923,-0.966803 3.85353073,-0.966803 1.0634457,0 2.0237481,0.202583 2.9238426,0.605481 0.00756,0.0027 0.015118,0.0038 0.022677,0.0076 0.8690646,0.365858 1.6739528,0.973001 2.4296694,1.875023 0.3541417,0.422476 0.9936753,0.453128 1.3867463,0.06652 L 15.14406,30.8649 c 0.365102,-0.360567 0.375307,-0.946848 0.02268,-1.320303 -1.428699,-1.485845 -3.096643,-2.654929 -4.9824,-3.484384 h -0.0076 C 8.2630519,25.191523 6.1044881,24.767196 3.7314739,24.767196 Z"
         style="color:#000000;-inkscape-font-specification:'SUSE, Ultra-Bold';display:inline;fill:#f94958;fill-opacity:1;stroke-width:3.77953;stroke-linecap:round;stroke-linejoin:round;stroke-miterlimit:0;-inkscape-stroke:none"
         id="path162" />
      <path
         d="m 46.002277,25.375397 c -0.522179,-1.51e-4 -0.945486,0.423194 -0.945297,0.945373 v 23.355402 c 0,1.630375 0.556724,3.10114 1.638652,4.214892 0.0076,0.0038 0.01512,0.01134 0.02268,0.01512 1.113298,1.081512 2.584517,1.646551 4.214854,1.646551 h 15.818381 c 0.522179,1.51e-4 0.945486,-0.423194 0.945297,-0.945373 v -6.06055 c 1.86e-4,-0.522142 -0.423158,-0.945487 -0.9453,-0.945298 H 53.413629 V 26.320279 c 1.89e-4,-0.52218 -0.423118,-0.945524 -0.945298,-0.945335 z"
         style="color:#000000;-inkscape-font-specification:'SUSE, Ultra-Bold';display:inline;fill:#f94958;fill-opacity:1;stroke-width:3.77953;stroke-linecap:round;stroke-linejoin:round;stroke-miterlimit:0;-inkscape-stroke:none"
         id="path163" />
      <path
         d="m 45.49994,-9.9997718 c -0.521423,8.315e-4 -0.943559,0.4238741 -0.94337,0.9453355 v 5.8535056 c -1.89e-4,0.5213858 0.421985,0.9444283 0.94337,0.9452976 h 6.652347 V 19.232644 c -1.89e-4,0.521348 0.421946,0.944391 0.943332,0.945336 h 6.511748 c 0.52218,1.89e-4 0.945487,-0.423156 0.945298,-0.945336 V -2.2556331 h 6.76955 c 0.521386,-9.071e-4 0.943521,-0.4239118 0.943332,-0.9452976 v -5.8535056 c 1.89e-4,-0.5213859 -0.421946,-0.9444284 -0.943332,-0.9453355 z"
         style="color:#000000;-inkscape-font-specification:'SUSE, Ultra-Bold';display:inline;fill:#f94958;fill-opacity:1;stroke-width:3.77953;stroke-linecap:round;stroke-linejoin:round;stroke-miterlimit:0;-inkscape-stroke:none"
         id="path164" />
      <path
         d="m 71.861276,25.125155 c -0.522179,-1.89e-4 -0.945486,0.423156 -0.945297,0.945335 v 28.287081 c -1.89e-4,0.522179 0.423118,0.945524 0.945297,0.945335 h 10.82812 c 2.100472,0 4.083213,-0.359811 5.921877,-1.078148 1.832618,-0.71588 3.451238,-1.747124 4.834016,-3.072265 1.384668,-1.326954 2.465726,-2.901694 3.240227,-4.708989 0.781531,-1.82347 1.173808,-3.826733 1.173808,-5.986318 v -0.406261 c 0,-2.182451 -0.393487,-4.200151 -1.173808,-6.023433 -0.744794,-1.801059 -1.809751,-3.384643 -3.187503,-4.708989 l -0.0076,-0.0076 C 92.130728,27.953296 90.508102,26.911621 88.646684,26.195665 86.806394,25.476799 84.815604,25.12534 82.68962,25.12534 Z m 7.404322,7.906242 h 2.892548 c 1.514494,0 2.778293,0.306898 3.832063,0.892573 0.0026,0.0026 0.0038,0.0038 0.0076,0.0076 1.06473,0.567874 1.867237,1.346759 2.457033,2.384768 0.582614,1.025386 0.886715,2.249764 0.886715,3.734362 v 0.406262 c 0,1.421291 -0.315969,2.610066 -0.92383,3.638664 -0.0026,0.0038 -0.0038,0.01134 -0.0076,0.01512 -0.588397,1.035515 -1.395742,1.824908 -2.494148,2.421884 -1.059931,0.563943 -2.299541,0.855458 -3.757833,0.855458 h -2.892548 z m -7.125997,-7.758765 c -0.52218,-1.89e-4 -0.945487,0.423156 -0.945298,0.945335 v 28.287081 c -1.89e-4,0.522179 0.423118,0.945524 0.945298,0.945335 H 82.96772 c 2.100473,0 4.083213,-0.359811 5.921878,-1.078148 1.832617,-0.71588 3.451237,-1.747162 4.834015,-3.072264 1.384668,-1.326955 2.465726,-2.901695 3.240227,-4.708989 0.781531,-1.823471 1.173808,-3.826734 1.173808,-5.986319 v -0.406261 c 0,-2.18245 -0.393487,-4.200151 -1.173808,-6.023433 -0.744793,-1.801058 -1.809751,-3.384643 -3.187502,-4.708989 l -0.0076,-0.0076 C 92.409094,28.100814 90.786467,27.059139 88.92505,26.343183 87.08476,25.624317 85.093969,25.272859 82.967985,25.272859 Z m 7.404321,7.906242 h 2.892548 c 1.514494,0 2.778293,0.306898 3.832063,0.892574 0.0026,0.0026 0.0038,0.0038 0.0076,0.0076 1.064731,0.567874 1.867238,1.346759 2.457033,2.384768 0.582614,1.025386 0.886715,2.249764 0.886715,3.734362 v 0.406262 c 0,1.421291 -0.315968,2.610066 -0.92383,3.638664 -0.0026,0.0038 -0.0038,0.01134 -0.0076,0.01512 -0.588397,1.035515 -1.395742,1.824907 -2.494148,2.421883 -1.059931,0.563943 -2.29954,0.855458 -3.757833,0.855458 h -2.892548 z"
         style="color:#000000;-inkscape-font-specification:'SUSE, Ultra-Bold';display:inline;fill:#f94958;fill-opacity:1;stroke-width:3.77953;stroke-linecap:round;stroke-linejoin:round;stroke-miterlimit:0;-inkscape-stroke:none"
         id="path165" />
      <path
         d="m 72.669868,-9.9999985 c -0.522179,-1.895e-4 -0.945486,0.4231559 -0.945297,0.9453354 v 5.6171717 c -1.89e-4,0.5221418 0.423156,0.9454866 0.945297,0.9452977 H 85.468709 L 71.355424,12.986332 c -0.130016,0.167056 -0.199937,0.372662 -0.199181,0.583975 v 5.662111 c -1.89e-4,0.522179 0.423118,0.945524 0.945298,0.945335 h 23.613317 c 0.522179,1.89e-4 0.945486,-0.423156 0.945297,-0.945335 v -5.617172 c 1.89e-4,-0.522142 -0.423156,-0.945487 -0.945297,-0.945298 H 81.800753 L 96.298832,-3.054663 c 0.133796,-0.1674331 0.207118,-0.3753071 0.207118,-0.5898709 v -5.4101292 c 1.89e-4,-0.5221795 -0.423118,-0.9455249 -0.945297,-0.9453354 z"
         style="color:#000000;-inkscape-font-specification:'SUSE, Ultra-Bold';display:inline;fill:#f94958;fill-opacity:1;stroke-width:3.77953;stroke-linecap:round;stroke-linejoin:round;stroke-miterlimit:0;-inkscape-stroke:none"
         id="path166" />
      <path
         d="m 29.835953,20.533407 2.4336,-7.515629 h -4.17188 c -0.03024,0 0.0025,0.02646 -0.04498,-0.02268 -0.04687,-0.04687 -0.03024,-0.01134 -0.03024,-0.04498 V 8.8231828 h 5.603528 l 2.33983,-7.2265702 H 28.02246 v -3.957052 c 0,-0.030236 -0.01512,-0.00276 0.03024,-0.050646 0.04762,-0.047622 0.01512,-0.022677 0.04498,-0.022677 h 9.175785 l 2.4336,-7.5137009 h -17.9297 c -0.243402,0 -0.452297,-4.157e-4 -0.701178,0.058583 -0.248693,0.059339 -0.516511,0.2169449 -0.693355,0.3925795 -0.184819,0.1848189 -0.323149,0.4682079 -0.36926,0.701178 -0.04573,0.2328189 -0.04498,0.4268976 -0.04498,0.6562393 V 14.730244 c 0,1.623912 0.554003,3.067314 1.625008,4.169915 0.0038,0.0038 0.01134,0.01134 0.01512,0.01512 1.102564,1.071005 2.546457,1.617185 4.169915,1.617185 z"
         style="-inkscape-font-specification:'SUSE, Ultra-Bold';display:inline;fill:#f94958;fill-opacity:1;stroke-width:3.77953;stroke-linecap:round;stroke-linejoin:round;stroke-miterlimit:0"
         id="path175" />
      <path
         d="m 28.619134,48.267769 -2.462891,7.513663 h 14.511723 c 0.418053,-0.0017 0.756321,-0.342047 0.753902,-0.759761 v -6.001927 c -0.0017,-0.415143 -0.338646,-0.750312 -0.753902,-0.751975 z"
         style="-inkscape-font-specification:'SUSE, Ultra-Bold';display:inline;fill:#f94958;fill-opacity:1;stroke-width:3.77953;stroke-linecap:round;stroke-linejoin:round;stroke-miterlimit:0"
         id="path178" />
      <path
         d="m 32.363285,36.845885 -2.365228,7.220712 h 9.798841 c 0.415143,-0.0017 0.752239,-0.339023 0.753902,-0.753902 v -5.712869 c -0.0017,-0.415144 -0.339023,-0.752278 -0.753902,-0.753941 z"
         style="-inkscape-font-specification:'SUSE, Ultra-Bold';display:inline;fill:#f94958;fill-opacity:1;stroke-width:3.77953;stroke-linecap:round;stroke-linejoin:round;stroke-miterlimit:0"
         id="path177" />
      <path
         d="m 36.148444,25.300978 -2.460926,7.507805 h 6.980448 c 0.415143,-0.0017 0.752239,-0.339024 0.753902,-0.753902 v -6.001966 c -0.0017,-0.415143 -0.338646,-0.750274 -0.753902,-0.751937 z"
         style="-inkscape-font-specification:'SUSE, Ultra-Bold';display:inline;fill:#f94958;fill-opacity:1;stroke-width:3.77953;stroke-linecap:round;stroke-linejoin:round;stroke-miterlimit:0"
         id="path176" />
    </g>
  </g>
</svg>
