<?xml version="1.0" encoding="UTF-8" standalone="no"?>
<!-- Created with Inkscape (http://www.inkscape.org/) -->

<svg
   width="28.870571"
   height="28.863186"
   viewBox="0 0 7.6386718 7.6367179"
   version="1.1"
   id="svg1"
   xmlns="http://www.w3.org/2000/svg"
   xmlns:svg="http://www.w3.org/2000/svg">
  <defs
     id="defs1" />
  <g
     id="layer1"
     transform="translate(-0.15698627,-0.15699027)">
    <path
       style="color:#000000;fill:#000000;stroke-linecap:round;stroke-linejoin:round;stroke-miterlimit:0;-inkscape-stroke:none"
       d="m 1.0358973,0.15699029 c -0.48173001,0 -0.87891001,0.397183 -0.87891001,0.87890601 v 1.503906 a 0.30000001,0.30000001 0 0 0 0.30078,0.300781 0.30000001,0.30000001 0 0 0 0.30078,-0.300781 v -1.503906 c 0,-0.15745901 0.11989,-0.27929701 0.27735001,-0.27929701 h 1.58984 a 0.30000001,0.30000001 0 0 0 0.29883,-0.298828 0.30000001,0.30000001 0 0 0 -0.29883,-0.300781 z"
       id="path26" />
    <path
       style="color:#000000;fill:#000000;stroke-linecap:round;stroke-linejoin:round;stroke-miterlimit:0;-inkscape-stroke:none"
       d="m 0.45776729,5.0554273 a 0.30000001,0.30000001 0 0 0 -0.30078,0.298828 v 1.605469 c 0,0.457173 0.37681,0.833985 0.83399,0.833984 H 2.6257373 a 0.30000001,0.30000001 0 0 0 0.29883,-0.298828 0.30000001,0.30000001 0 0 0 -0.29883,-0.300781 H 0.99097729 c -0.13291,0 -0.23243,-0.101466 -0.23243,-0.234375 v -1.605469 a 0.30000001,0.30000001 0 0 0 -0.30078,-0.298828 z"
       id="path27" />
    <path
       style="color:#000000;fill:#000000;stroke-linecap:round;stroke-linejoin:round;stroke-miterlimit:0;-inkscape-stroke:none"
       d="m 7.4948773,5.0554273 a 0.30000001,0.30000001 0 0 0 -0.30078,0.298828 v 1.66211 c 0,0.102167 -0.0756,0.177734 -0.17773,0.177734 h -1.46485 a 0.30000001,0.30000001 0 0 0 -0.29882,0.300781 0.30000001,0.30000001 0 0 0 0.29882,0.298828 h 1.46485 c 0.42643,0 0.77929,-0.350912 0.77929,-0.777343 v -1.66211 a 0.30000001,0.30000001 0 0 0 -0.30078,-0.298828 z"
       id="path28" />
    <path
       style="color:#000000;fill:#000000;stroke-linecap:round;stroke-linejoin:round;stroke-miterlimit:0;-inkscape-stroke:none"
       d="m 5.5515173,0.15699029 a 0.30000001,0.30000001 0 0 0 -0.29882,0.300781 0.30000001,0.30000001 0 0 0 0.29882,0.298828 h 1.35157 c 0.16432,0 0.29101,0.126687 0.29101,0.29101601 v 1.492187 a 0.30000001,0.30000001 0 0 0 0.30078,0.300781 0.30000001,0.30000001 0 0 0 0.30078,-0.300781 v -1.492187 c 0,-0.48859201 -0.40398,-0.89062501 -0.89257,-0.89062501 z"
       id="path29" />
    <path
       style="color:#000000;fill:#000000;stroke-linecap:round;stroke-linejoin:round;stroke-miterlimit:0;-inkscape-stroke:none"
       d="m 2.0095433,1.6823293 a 0.30006751,0.30006751 0 0 0 -0.300782,0.300781 v 1.521484 a 0.30006751,0.30006751 0 0 0 0.300782,0.300781 h 1.523437 a 0.30006751,0.30006751 0 0 0 0.298828,-0.300781 v -1.521484 a 0.30006751,0.30006751 0 0 0 -0.298828,-0.300781 z m 0.300781,0.599609 h 0.921875 v 0.923828 h -0.921875 z"
       id="rect39" />
    <path
       style="color:#000000;fill:#000000;stroke-linecap:round;stroke-linejoin:round;stroke-miterlimit:0;-inkscape-stroke:none"
       d="m 4.5329803,1.6823293 a 0.30006751,0.30006751 0 0 0 -0.300781,0.300781 v 1.521484 a 0.30006751,0.30006751 0 0 0 0.300781,0.300781 h 1.521484 a 0.30006751,0.30006751 0 0 0 0.300782,-0.300781 v -1.521484 a 0.30006751,0.30006751 0 0 0 -0.300782,-0.300781 z m 0.298828,0.599609 h 0.923828 v 0.923828 h -0.923828 z"
       id="rect39-4" />
    <path
       style="color:#000000;fill:#000000;stroke-linecap:round;stroke-linejoin:round;stroke-miterlimit:0;-inkscape-stroke:none"
       d="m 2.0095433,4.2057663 a 0.30006751,0.30006751 0 0 0 -0.300782,0.298828 v 1.523438 a 0.30006751,0.30006751 0 0 0 0.300782,0.300781 h 1.523437 a 0.30006751,0.30006751 0 0 0 0.298828,-0.300781 v -1.523438 a 0.30006751,0.30006751 0 0 0 -0.298828,-0.298828 z m 0.300781,0.599609 h 0.921875 v 0.921875 h -0.921875 z"
       id="rect39-41" />
    <path
       style="color:#000000;fill:#000000;stroke-linecap:round;stroke-linejoin:round;stroke-miterlimit:0;-inkscape-stroke:none"
       d="m 4.5329803,4.2057663 a 0.30006751,0.30006751 0 0 0 -0.300781,0.298828 v 1.523438 a 0.30006751,0.30006751 0 0 0 0.300781,0.300781 h 1.521484 a 0.30006751,0.30006751 0 0 0 0.300782,-0.300781 v -1.523438 a 0.30006751,0.30006751 0 0 0 -0.300782,-0.298828 z m 0.298828,0.599609 h 0.923828 v 0.921875 h -0.923828 z"
       id="rect39-4-8" />
  </g>
</svg>
